# xmcd
#
# Track frame offsets: 
#        150
#        13402
#        25758
#        43394
#        55639
#        68510
#        81935
#        93890
#        107392
#        121314
#        135916
#        146905
#        159070
#        171261
#        185618
#        198852
#        213042
#        222753
#        235759
#        248458
#        261288
#        274705
#        287733
#        300628
#        313210
#
# Disc length: 4360 seconds
#
# Revision: 0
# Processed by: cddbd v1.5.2PL0 Copyright (c) Steve Scherf et al.
# Submitted via: ExactAudioCopy v0.95b4
#
DISCID=56110619
DTITLE=Howlin' Wolf - Howlin the Blues [CD1)
DYEAR=2006
DGENRE=Blues
TTITLE0=Moanin' at midnight
TTITLE1=How many more years
TTITLE2=Cryin' at daybreak
TTITLE3=Passing by blues
TTITLE4=I want your picture
TTITLE5=The wolf is at your door [Howlin' for may baby]
TTITLE6=Getting old and gray
TTITLE7=My baby walked off
TTITLE8=Drinking my C.V. wine
TTITLE9=My troubles and me
TTITLE10=Highway man
TTITLE11=Brown skin woman
TTITLE12=The sun is rising
TTITLE13=Color and kind
TTITLE14=Well that's all right
TTITLE15=Decoration Day
TTITLE16=Come back home
TTITLE17=I've got a woman
TTITLE18=Just my kind
TTITLE19=I'm the Wolf
TTITLE20=No place to go
TTITLE21=Baby how long
TTITLE22=Evil (is going on)
TTITLE23=Forty Four
TTITLE24=Smokestack Lightnin'
EXTD=
EXTT0=
EXTT1=
EXTT2=
EXTT3=
EXTT4=
EXTT5=
EXTT6=
EXTT7=
EXTT8=
EXTT9=
EXTT10=
EXTT11=
EXTT12=
EXTT13=
EXTT14=
EXTT15=
EXTT16=
EXTT17=
EXTT18=
EXTT19=
EXTT20=
EXTT21=
EXTT22=
EXTT23=
EXTT24=
PLAYORDER=
